<?xml version="1.0" encoding="UTF-8" standalone="no"?>
<!-- Created with Inkscape (http://www.inkscape.org/) -->

<svg
   xmlns:dc="http://purl.org/dc/elements/1.1/"
   xmlns:cc="http://creativecommons.org/ns#"
   xmlns:rdf="http://www.w3.org/1999/02/22-rdf-syntax-ns#"
   xmlns:svg="http://www.w3.org/2000/svg"
   xmlns="http://www.w3.org/2000/svg"
   xmlns:sodipodi="http://sodipodi.sourceforge.net/DTD/sodipodi-0.dtd"
   xmlns:inkscape="http://www.inkscape.org/namespaces/inkscape"
   width="1052.3622"
   height="744.09448"
   id="svg2"
   version="1.1"
   inkscape:version="0.47 r22583"
   sodipodi:docname="logo_3g.svg"
   inkscape:export-filename="/home/martin/Desktop/logo_3g.png"
   inkscape:export-xdpi="439.45001"
   inkscape:export-ydpi="439.45001">
  <defs
     id="defs4">
    <inkscape:perspective
       sodipodi:type="inkscape:persp3d"
       inkscape:vp_x="0 : 526.18109 : 1"
       inkscape:vp_y="0 : 1000 : 0"
       inkscape:vp_z="744.09448 : 526.18109 : 1"
       inkscape:persp3d-origin="372.04724 : 350.78739 : 1"
       id="perspective10" />
    <inkscape:perspective
       id="perspective2824"
       inkscape:persp3d-origin="0.5 : 0.33333333 : 1"
       inkscape:vp_z="1 : 0.5 : 1"
       inkscape:vp_y="0 : 1000 : 0"
       inkscape:vp_x="0 : 0.5 : 1"
       sodipodi:type="inkscape:persp3d" />
    <inkscape:perspective
       id="perspective2848"
       inkscape:persp3d-origin="0.5 : 0.33333333 : 1"
       inkscape:vp_z="1 : 0.5 : 1"
       inkscape:vp_y="0 : 1000 : 0"
       inkscape:vp_x="0 : 0.5 : 1"
       sodipodi:type="inkscape:persp3d" />
    <inkscape:perspective
       id="perspective2869"
       inkscape:persp3d-origin="0.5 : 0.33333333 : 1"
       inkscape:vp_z="1 : 0.5 : 1"
       inkscape:vp_y="0 : 1000 : 0"
       inkscape:vp_x="0 : 0.5 : 1"
       sodipodi:type="inkscape:persp3d" />
    <inkscape:perspective
       id="perspective3701"
       inkscape:persp3d-origin="0.5 : 0.33333333 : 1"
       inkscape:vp_z="1 : 0.5 : 1"
       inkscape:vp_y="0 : 1000 : 0"
       inkscape:vp_x="0 : 0.5 : 1"
       sodipodi:type="inkscape:persp3d" />
    <inkscape:perspective
       id="perspective3732"
       inkscape:persp3d-origin="0.5 : 0.33333333 : 1"
       inkscape:vp_z="1 : 0.5 : 1"
       inkscape:vp_y="0 : 1000 : 0"
       inkscape:vp_x="0 : 0.5 : 1"
       sodipodi:type="inkscape:persp3d" />
    <inkscape:perspective
       id="perspective3769"
       inkscape:persp3d-origin="0.5 : 0.33333333 : 1"
       inkscape:vp_z="1 : 0.5 : 1"
       inkscape:vp_y="0 : 1000 : 0"
       inkscape:vp_x="0 : 0.5 : 1"
       sodipodi:type="inkscape:persp3d" />
    <inkscape:perspective
       id="perspective3848"
       inkscape:persp3d-origin="0.5 : 0.33333333 : 1"
       inkscape:vp_z="1 : 0.5 : 1"
       inkscape:vp_y="0 : 1000 : 0"
       inkscape:vp_x="0 : 0.5 : 1"
       sodipodi:type="inkscape:persp3d" />
    <inkscape:perspective
       id="perspective2851"
       inkscape:persp3d-origin="0.5 : 0.33333333 : 1"
       inkscape:vp_z="1 : 0.5 : 1"
       inkscape:vp_y="0 : 1000 : 0"
       inkscape:vp_x="0 : 0.5 : 1"
       sodipodi:type="inkscape:persp3d" />
    <inkscape:perspective
       id="perspective2873"
       inkscape:persp3d-origin="0.5 : 0.33333333 : 1"
       inkscape:vp_z="1 : 0.5 : 1"
       inkscape:vp_y="0 : 1000 : 0"
       inkscape:vp_x="0 : 0.5 : 1"
       sodipodi:type="inkscape:persp3d" />
    <inkscape:perspective
       id="perspective2976"
       inkscape:persp3d-origin="0.5 : 0.33333333 : 1"
       inkscape:vp_z="1 : 0.5 : 1"
       inkscape:vp_y="0 : 1000 : 0"
       inkscape:vp_x="0 : 0.5 : 1"
       sodipodi:type="inkscape:persp3d" />
    <inkscape:perspective
       id="perspective3037"
       inkscape:persp3d-origin="0.5 : 0.33333333 : 1"
       inkscape:vp_z="1 : 0.5 : 1"
       inkscape:vp_y="0 : 1000 : 0"
       inkscape:vp_x="0 : 0.5 : 1"
       sodipodi:type="inkscape:persp3d" />
  </defs>
  <sodipodi:namedview
     id="base"
     pagecolor="#ffffff"
     bordercolor="#666666"
     borderopacity="1.0"
     inkscape:pageopacity="0.0"
     inkscape:pageshadow="2"
     inkscape:zoom="0.35"
     inkscape:cx="-978.01217"
     inkscape:cy="337.07795"
     inkscape:document-units="px"
     inkscape:current-layer="layer1"
     showgrid="false"
     inkscape:window-width="1366"
     inkscape:window-height="716"
     inkscape:window-x="0"
     inkscape:window-y="0"
     inkscape:window-maximized="1"
     inkscape:snap-global="true"
     inkscape:object-nodes="true"
     inkscape:snap-smooth-nodes="true" />
  <metadata
     id="metadata7">
    <rdf:RDF>
      <cc:Work
         rdf:about="">
        <dc:format>image/svg+xml</dc:format>
        <dc:type
           rdf:resource="http://purl.org/dc/dcmitype/StillImage" />
        <dc:title></dc:title>
      </cc:Work>
    </rdf:RDF>
  </metadata>
  <g
     inkscape:label="Layer 1"
     inkscape:groupmode="layer"
     id="layer1"
     transform="translate(0,-308.2677)"
     style="display:inline">
    <rect
       style="fill:#ffffff;fill-opacity:1;fill-rule:nonzero;stroke:none;stroke-opacity:1"
       id="rect3829-6"
       width="1026.3149"
       height="753.57379"
       x="-1180.3003"
       y="128.43243"
       inkscape:export-xdpi="439.45001"
       inkscape:export-ydpi="439.45001" />
    <path
       style="fill:#cd3d00;fill-opacity:1"
       d="m -653.23501,741.25501 c 21.13922,-62.47987 17.62633,-129.40204 7.14211,-193.49965 -6.09266,-32.42883 -38.82725,-92.14478 -70.21359,-76.91317 34.58117,26.76488 56.87208,70.96606 56.58201,116.68469 2.03064,43.1181 4.11774,87.10346 -7.24924,129.19651 2.95827,4.33644 8.92682,39.89609 13.73871,24.53162 z m -129.78595,140.60594 c 41.2645,-12.54735 84.58107,-38.26843 104.32566,-77.5951 3.75342,-9.50881 10.3614,-21.66609 9.95935,-21.92526 1.28636,-10.45029 -7.20858,-39.36073 -20.06636,-6.85003 -14.71408,32.50014 -55.07804,81.36266 -90.24348,68.26256 15.77842,-37.15717 22.34892,-76.53556 18.70482,-116.81707 -1.76441,-76.6989 -21.92326,-155.53874 -70.51259,-216.37128 -20.15072,-37.46916 -51.31564,-65.69911 -80.87666,-94.91876 -31.11219,-32.35138 -8.00045,-64.43835 20.06661,-85.70904 24.54846,-41.79424 -9.56928,-106.84142 -26.80666,-126.56205 -3.08777,-18.14474 -15.86627,-41.15553 -15.86627,-41.15553 0,0 -5.32239,26.49119 -17.73957,34.59618 -16.81982,8.63789 -50.30999,-11.12107 -70.67209,-6.02102 -14.2403,-0.0426 -30.5697,-46.44484 -30.5697,-46.44484 0,0 -7.1516,38.75376 -10.6468,48.14794 -12.1467,28.78204 -42.7896,50.41448 -36.3204,85.57944 -1.5692,49.28383 54.2403,69.59884 64.5189,113.28033 -1.0292,43.5423 -36.4815,70.52639 -61.2319,108.65876 -28.9335,42.73897 -51.9484,89.67798 -70.8412,137.50907 -5.2592,22.89243 -12.2381,21.9921 -12.2381,21.9921 0,0 -0.064,-362.30498 -0.2229,-531.08492 341.33332,0 684.98164,0 1026.31495,0 0,249.00002 0,504.57378 0,753.5738 -208.08061,-0.42969 -420.98438,2.07197 -629.03561,-0.14528 z m -397.17894,-93.06843 c 0,0 33.0077,54.38806 31.5265,80.61059 -0.5238,9.27281 1.2057,5.93224 -0.8267,13.09686 1.2091,-1.57937 -30.8002,-0.49374 -30.8002,-0.49374 0,0 0.1004,-93.21371 0.1004,-93.21371 z"
       id="path3686"
       sodipodi:nodetypes="cccccccccccccccccccccccccccccccsccc" />
    <path
       style="fill:#000000"
       d=""
       id="path2854" />
    <path
       style="fill:#000000;display:inline"
       d="m -155.62474,883.3499 c -129.46875,-0.2813 -258.9375,-0.5625 -388.40625,-0.8438 -22.53071,-7.4723 -59.94577,-19.5094 -80.70522,-41.4618 -32.16023,-28.22552 -43.43163,-71.0505 -57.95103,-109.69443 -11.34933,-41.69948 -17.1259,-84.9018 -11.14803,-128.03125 3.24123,-21.02145 7.23608,-74.00816 17.17928,-74.15625 10.70203,5.25769 -5.79391,63.18272 -2.0601,95.08301 -2.38877,53.14555 7.43036,106.98462 32.5601,154.10449 15.69296,34.09544 47.7096,65.67173 86.3805,68.97843 11.74566,-20.89612 -19.95489,-53.59053 -13.69039,-80.72015 -2.1119,-59.10513 3.76085,-118.80275 24.49739,-174.44578 12.75314,-47.08791 48.82791,-82.76664 73.09375,-124.0625 20.37739,-28.90913 58.41462,-44.25847 67.40625,-80.9375 15.0624,-36.98236 -39.45523,-42.37446 -41.125,-77.3125 -8.54338,-32.49765 5.85969,-63.4564 21.46875,-91 8.94634,-18.34262 26.46875,-60.09375 26.46875,-60.09375 0,0 19.97919,34.61866 21.32721,35.03381 18.31325,3.19689 64.0401,-0.47637 79.38868,-8.7016 9.8554,-11.7896 17.59068,-35.87423 17.59068,-35.87423 0,0 8.66551,31.87632 10.93944,39.37619 13.13555,15.57068 24.52701,28.97148 29.50974,48.6072 15.99598,31.43886 4.4792,72.06355 -19.54466,96.29443 -14.74916,16.18246 -35.79476,32.84622 -38.17952,55.66201 -4.09691,30.22293 24.59512,47.92562 38.57304,70.9265 25.4997,44.44603 56.10426,86.07804 75.27461,133.95252 17.78615,32.66502 30.10573,68.99521 27.69774,106.57726 -0.72919,35.92251 4.54799,72.75058 -7.60821,107.33341 -2.07413,25.50643 -25.25441,54.21608 -22.68392,75.13978 9.61094,-4.2102 37.96547,9.5087 33.74642,-8.9419 0,-121.43056 0,-242.86109 0,-364.29163"
       id="path3824"
       sodipodi:nodetypes="cccccccccccccccccccccccccccccc" />
    <path
       style="fill:#000000;display:inline"
       d="m -749.99746,162.88407 c -1.26128,0.0572 -2.63209,0.25935 -4.15625,0.625 -6.46382,1.55064 -9.16694,4.1309 -13.625,13 -3.15141,6.26957 -3.28792,7.02534 -3.6875,20.96875 -0.36312,12.67135 -0.18737,14.88906 1.4375,17.90625 2.04481,3.797 6.77183,6.4476 9.875,5.53125 1.1,-0.32482 3.44419,-0.82109 5.1875,-1.09375 1.74331,-0.27267 4.08227,-1.47777 5.21875,-2.6875 1.97245,-2.09957 7.46096,-16.21602 9.1875,-23.625 0.44859,-1.925 1.34603,-5.75 2,-8.5 2.27625,-9.57172 1.77368,-13.43861 -2.375,-18.15625 -2.53757,-2.88559 -5.27867,-4.14047 -9.0625,-3.96875 z"
       id="path3822" />
    <path
       style="fill:#000000;display:inline"
       d="m -799.90371,180.69657 c -4.4001,-0.0729 -8.48433,2.30298 -12,7 -3.13991,4.19498 -4.0275,8.11156 -4.15625,18.8125 -0.0885,7.35284 0.2976,9.34912 2.75,14.65625 1.55925,3.37431 3.80925,6.58029 5,7.15625 3.7244,1.80148 9.12202,1.33867 12.75,-1.09375 1.86883,-1.25298 4.76632,-4.74048 6.40625,-7.75 2.84182,-5.21515 2.98255,-6.02333 3,-17.625 0.0206,-13.68729 -0.99061,-16.23704 -7.59375,-19.53125 -2.09426,-1.0448 -4.15621,-1.59187 -6.15625,-1.625 z"
       id="path3820" />
    <path
       style="fill:#000000;display:inline"
       d="m -699.21621,187.50907 c -3.71659,0 -11.10448,3.36661 -15.78125,7.1875 -4.26211,3.48213 -13.8326,18.41 -14.84375,23.15625 -1.71779,8.0632 -1.75126,9.59448 -0.25,13.1875 2.70292,6.46899 12.86969,9.30314 21.28125,5.9375 9.74588,-3.89953 21.12091,-23.38347 21.15625,-36.25 0.0246,-8.97112 -3.67764,-13.21875 -11.5625,-13.21875 z"
       id="path3818" />
    <path
       style="fill:#000000;display:inline"
       d="m -757.34121,232.54032 c -6.9647,-0.011 -10.49842,1.57234 -18.8125,8.5 -2.75,2.29142 -6.03588,4.73069 -7.3125,5.40625 -3.80973,2.016 -12.13677,3.8231 -21.125,4.59375 -17.55195,1.50491 -22.68096,6.81942 -23.78125,24.6875 -0.74325,12.07008 0.71083,16.99171 6.21875,20.78125 6.04815,4.16124 17.64824,8 24.1875,8 1.46556,0 4.06095,0.42056 5.75,0.9375 1.68905,0.51693 5.7625,1.51183 9.0625,2.1875 8.80061,1.80191 14.19664,4.69838 25,13.40625 7.89337,6.36232 12.78731,9.40819 17.5625,10.90625 5.86393,1.83962 8.49894,1.8656 11.75,0.15625 3.9876,-2.09662 10.65854,-9.45705 13.25,-14.59375 1.55146,-3.07523 2.42323,-6.87461 2.71875,-12 0.39291,-6.81443 0.17312,-7.83368 -2.1875,-11.28125 -1.42896,-2.08692 -2.59375,-4.16404 -2.59375,-4.59375 0,-0.4297 -1.0742,-1.77986 -2.40625,-3.03125 -3.60407,-3.38585 -8.20999,-13.84206 -8.84375,-20.09375 -0.86292,-8.51235 -5.50401,-21.63026 -9.09375,-25.71875 -4.52858,-5.15776 -11.74984,-8.23802 -19.34375,-8.25 z"
       id="path3816" />
    <path
       style="fill:#ffffff;fill-opacity:1;display:inline"
       d="m -776.24746,243.57157 c 1.04518,-0.0238 4.19518,1.03462 7,2.375 8.52269,4.07288 12.78049,5.70897 20.09375,7.625 15.0003,3.92999 15.78778,4.49693 13.71875,10.21875 -0.66931,1.85094 -1.21875,5.62842 -1.21875,8.375 0,4.73174 -0.18276,5.05947 -3.53125,6.65625 -1.94366,0.92686 -5.69449,1.6875 -8.34375,1.6875 -2.64927,0 -6.12417,0.41841 -7.71875,0.90625 -1.59457,0.48785 -4.81875,1.39702 -7.15625,2.03125 -4.24037,1.15054 -5.81689,3.08168 -2.5,3.0625 0.9625,-0.006 4.675,0.94315 8.25,2.09375 10.27452,3.30681 12.54217,3.90625 14.28125,3.90625 2.40982,0 3.56544,2.84692 2.625,6.40625 -0.45272,1.71347 -1.0761,4.30721 -1.375,5.78125 -0.66389,3.27408 -3.08428,5.85722 -5.34375,5.6875 -0.92321,-0.0693 -3.7125,-0.76208 -6.1875,-1.53125 -2.475,-0.76918 -7.425,-2.25579 -11,-3.3125 -3.575,-1.05671 -8.975,-2.67752 -12,-3.59375 -4.82798,-1.46234 -11.83703,-3.25471 -20,-5.125 -6.46683,-1.48168 -7.84271,-7.7409 -3.5625,-16.1875 1.9708,-3.88919 3.26297,-5.1251 6.78125,-6.46875 2.39135,-0.91326 5.45302,-1.65625 6.78125,-1.65625 3.85365,0 19.15915,-4.99128 18.78125,-6.125 -0.25201,-0.75603 -15.72484,-6.79479 -17.53125,-6.84375 -0.1375,-0.004 -0.25,-1.01726 -0.25,-2.21875 0,-3.26976 7.13916,-13.69831 9.40625,-13.75 z"
       id="path3814" />
    <path
       style="fill:#000000;display:inline"
       d="m -681.99746,246.72782 c -3.84796,0.17094 -8.23665,2.46444 -13.0625,6.875 -9.25947,8.46265 -13.73766,18.59706 -10.3125,23.28125 3.43269,4.69448 14.60733,6.22332 20.21875,2.78125 11.42052,-7.00542 17.3423,-22.72646 11.09375,-29.46875 -2.27297,-2.45258 -4.94464,-3.60171 -7.9375,-3.46875 z"
       id="path3812" />
    <path
       style="fill:#000000;display:inline"
       d="m -622.46621,459.63407 c -7.12825,1.19211 -15.64531,6.73986 -18.94687,9.42394 -9.99407,6.52556 -15.58116,13.35151 -23.26552,20.50898 -1.96565,2.72379 -0.42526,6.50362 1.97883,8.40316 2.29969,2.4689 3.34952,5.75896 4.32731,8.91392 2.28733,-5.87294 5.25312,-11.73697 10.24639,-15.77889 5.8458,-6.15451 10.93239,-11.61064 18.40833,-15.60163 2.84794,-1.61826 6.01906,-3.0669 8.08549,-5.68952 1.75531,-2.48453 3.04284,-5.98887 1.54618,-8.87893 -0.4897,-0.80118 -1.38604,-1.50098 -2.38014,-1.30103 z"
       id="path3810"
       sodipodi:nodetypes="cccccccccc" />
    <path
       style="fill:#000000;display:inline"
       d="m -966.27875,558.07157 c -7.8309,0.065 -11.4173,0.51366 -14.625,1.6875 -17.2567,6.3151 -31.75715,17.18654 -31.74995,23.8125 0.01,6.64352 6.1306,12.9375 12.5626,12.9375 2.95345,0 8.39965,-2.26527 12.93735,-5.40625 4.5644,-3.15938 11.6439,-6.59375 13.625,-6.59375 0.9744,0 2.0351,-0.45 2.375,-1 0.3399,-0.55 4.615,-1 9.5,-1 4.8851,0 9.1602,0.45 9.5,1 0.3399,0.55 1.8701,1 3.4063,1 3.553,0 8.884,3.59188 11.8125,7.9375 2.7052,4.01421 3.0801,11.61713 0.7812,16.0625 -1.5641,3.02474 -9.3399,9 -11.7187,9 -0.7534,0 -1.79,0.38938 -2.3125,0.84375 -1.2939,1.12521 -8.0041,2.94067 -13.4688,3.65625 -2.4749,0.32411 -5.8499,0.99073 -7.5,1.5 -1.65,0.50927 -4.2548,1.19196 -5.7812,1.5 -1.5264,0.30803 -4.5639,2.18121 -6.75,4.15625 -4.0836,3.68925 -4.8452,6.49239 -3.3125,12.21875 0.8285,3.0954 9.7778,7.125 15.8125,7.125 2.4269,0 4.6914,0.45 5.0312,1 0.3399,0.55 1.6076,1.02325 2.8126,1.03125 2.5445,0.0169 9.5531,2.3283 14.0624,4.65625 6.8131,3.51724 14.625,12.81758 14.625,17.40625 0,0.98304 0.45,2.06633 1,2.40625 1.8126,1.12027 1.1801,13.2757 -0.9062,17.3125 -3.2214,6.2332 -12.7913,14.1875 -17.0312,14.1875 -1.0751,0 -2.2227,0.45 -2.5626,1 -0.7639,1.2361 -16.8638,1.3425 -19.25,0.125 -0.9549,-0.4873 -4.1337,-1.94265 -7.0624,-3.21875 -2.929,-1.2761 -5.8011,-3.1776 -6.375,-4.25 -0.574,-1.0723 -1.8913,-2.9108 -2.9063,-4.0625 -1.015,-1.1518 -3.3178,-3.7935 -5.125,-5.875 -5.1047,-5.87954 -12.48955,-6.35012 -18.62495,-1.1875 -5.6662,4.7677 -5.3138,12.73755 0.9687,22.40625 2.1782,3.352 5.6123,7.2388 7.6563,8.625 2.0441,1.3862 5.14775,3.55915 6.90625,4.84375 2.9317,2.1418 16.3368,6.9452 22.3124,8 5.7631,1.0173 27.5877,-0.2266 31.8126,-1.8125 14.497,-5.4418 26.63379,-15.9149 33.74999,-29.125 4.0811,-7.5761 5.4634,-26.67729 2.6562,-36.875 -2.3857,-8.66597 -8.8359,-17.21062 -19.12499,-25.34375 l -2.4062,-1.90625 7.2812,-6.90625 c 10.00069,-9.5109 12.34249,-15.06693 12.34379,-28.9375 9e-4,-13.39897 -2.9849,-21.26604 -11.24999,-29.53125 -5.4303,-5.43021 -9.5995,-7.76503 -20.7188,-11.625 -6.9688,-2.41917 -9.3223,-2.7352 -21.3438,-2.78125 -1.3035,-0.005 -2.5062,-0.009 -3.625,0 z"
       id="path2858" />
    <path
       style="fill:#fffdfc;fill-opacity:1;display:inline"
       d="m -525.00409,332.28255 c 6.98938,-3.31668 13.33115,-16.68712 13.35689,-28.16054 0.0161,-7.16163 -2.57564,-11.87485 -11.91169,-21.66234 -6.05459,-6.34734 -8.26732,-9.52689 -10.47218,-15.04782 -4.88428,-12.23016 -8.93981,-20.46662 -11.05676,-22.45539 -3.97184,-3.73135 -13.73194,-7.44911 -20.63422,-7.85988 -8.61526,-0.5127 -12.83151,1.60503 -23.4842,11.79564 -8.52195,8.15228 -10.43349,9.08045 -24.92908,12.10462 -3.3,0.68846 -7.66809,2.07523 -9.70686,3.0817 -6.82277,3.36815 -11.79314,15.51345 -11.79314,28.817 0,8.43818 1.05824,11.41561 5.80954,16.34547 6.94926,7.21044 9.60462,7.85839 35.19046,8.58704 l 20.5,0.5838 7,3.39873 c 3.85,1.8693 11.725,5.34625 17.5,7.72655 11.7058,4.82482 18.6242,5.59595 24.63124,2.74542 z"
       id="path3682" />
    <path
       style="fill:#fffdfc;fill-opacity:1;display:inline"
       d="m -494.00745,275.32103 c 8.69339,-3.57158 14.37212,-13.05941 14.37212,-24.01244 0,-9.34954 -3.84676,-14.41031 -10.92431,-14.37196 -8.08665,0.0438 -17.68154,9.16864 -22.23101,21.14186 -3.12092,8.21361 -1.93316,14.55652 3.26539,17.43785 3.27977,1.81784 10.84963,1.72256 15.51781,-0.19531 z"
       id="path3678" />
    <path
       style="fill:#fffdfc;fill-opacity:1;display:inline"
       d="m -612.13533,245.07415 c 1.65,-1.00662 4.35,-3.77872 6,-6.16023 2.8444,-4.10543 3.01817,-4.93517 3.35035,-15.9974 0.30952,-10.30784 0.0917,-12.26869 -1.86955,-16.82768 -1.22094,-2.83816 -3.9674,-6.73905 -6.10323,-8.66864 -3.3006,-2.9819 -4.59568,-3.50589 -8.63045,-3.49191 -6.63139,0.023 -12.1332,3.30403 -15.07092,8.98767 -2.09814,4.05928 -2.28486,5.51555 -1.9227,14.99588 0.30798,8.06236 0.91795,11.66078 2.62741,15.5 5.02409,11.28341 14.16101,16.21228 21.61909,11.66231 z"
       id="path3676" />
    <path
       style="fill:#fffdfc;fill-opacity:1;display:inline"
       d="m -525.13533,238.04618 c 10.89896,-4.96377 18.5,-20.73863 18.5,-38.3941 0,-12.6495 -3.98981,-17.74526 -13.88486,-17.73365 -5.74051,0.007 -8.51678,1.23121 -12.83762,5.66206 -3.08277,3.16124 -9.27752,12.58784 -9.27752,14.11766 0,0.72216 -0.74547,2.75316 -1.65659,4.51335 -2.602,5.02676 -4.56588,18.16044 -3.37618,22.57864 2.48029,9.2111 13.07526,13.56332 22.53277,9.25604 z"
       id="path3674" />
    <path
       style="fill:#fffdfc;fill-opacity:1;display:inline"
       d="m -575.15451,227.45885 c 8.45757,-2.20292 11.19589,-4.59449 12.38609,-10.81768 0.55007,-2.87613 1.302,-6.80433 1.67095,-8.72933 0.36895,-1.925 0.88006,-9.8 1.1358,-17.5 0.44631,-13.43745 0.37033,-14.14062 -1.89089,-17.49999 -3.14094,-4.66631 -8.02381,-6.28181 -14.99242,-4.96024 -8.19006,1.55321 -13.24837,7.61998 -16.38096,19.64679 -2.75862,10.59108 -1.16079,28.46533 3.13,35.0139 1.45386,2.21887 7.05113,6.28722 8.66182,6.2958 0.38567,0.002 3.21149,-0.6501 6.27961,-1.44925 z"
       id="path2830" />
    <path
       style="fill:#cd3d00;fill-opacity:1;display:inline"
       d="m -562.58982,312.37685 c -1.65,-0.46597 -12.10951,-3.01782 -23.24335,-5.6708 -11.13384,-2.65297 -20.24634,-5.18747 -20.25,-5.63222 -0.01,-1.17234 5.61247,-8.27175 12.03021,-15.19136 5.76993,-6.22113 8.60104,-11.39528 7.62574,-13.93686 -0.31083,-0.81003 -2.38708,-2.40226 -4.61388,-3.53828 -4.71909,-2.4075 -5.06007,-4.08417 -1.41386,-6.95228 3.61946,-2.84707 5.97988,-2.63071 16.60805,1.52234 6.84684,2.67546 10.10235,3.45164 12.72847,3.03473 3.32629,-0.52807 6.98098,-3.61166 9.52862,-8.03963 0.94418,-1.64106 1.27912,-1.64414 6,-0.0552 2.75,0.92556 5.5625,2.13898 6.25,2.69647 1.29398,1.04928 1.75776,11.28194 0.64301,14.18694 -0.73829,1.92396 -7.30377,2.1329 -13.6538,0.43453 -2.58618,-0.6917 -6.23144,-0.85605 -9.17996,-0.4139 l -4.89047,0.73338 4.27481,1.91389 c 2.35115,1.05264 5.09912,1.91389 6.1066,1.91389 2.89116,0 3.29454,1.80881 1.46925,6.58826 -2.24227,5.8713 -4.31333,6.90568 -10.60046,5.29434 -3.81937,-0.97888 -5.20598,-0.9956 -6.1277,-0.0739 -1.70105,1.70105 -0.13614,2.87201 5.70872,4.27161 14.46017,3.46262 15.44872,3.86719 16.13548,6.60343 0.37898,1.51 0.0273,4.38218 -0.82345,6.72584 -1.24491,3.42933 -1.95577,4.118 -4.39846,4.2612 -1.60246,0.0939 -4.26357,-0.21045 -5.91357,-0.67642 z"
       id="path3680" />
    <path
       style="fill:#ffffff;fill-opacity:1;display:inline"
       d="m -367.16587,731.93814 c 23.4988,-5.43222 38.18346,-15.15122 52.6902,-34.87284 5.48391,-7.45527 7.29204,-10.82002 11.03003,-20.52579 3.67501,-9.54224 4.31469,-11.47288 5.07736,-15.32428 0.36207,-1.82835 1.89921,-4.75335 3.41588,-6.5 5.47268,-6.30253 6.2688,-10.05384 3.40718,-16.0547 -2.82121,-5.91617 -6.49465,-6.85358 -24.43126,-6.23451 -27.80485,0.95966 -43.31918,3.22093 -61.41083,8.95084 -8.06244,2.5535 -10.80711,3.94822 -14.25,7.24123 -3.83856,3.67147 -4.26421,4.54892 -4.26421,8.7905 0,5.3094 2.69672,9.88925 7.20034,12.22839 3.69104,1.91709 5.18101,1.78728 12.33456,-1.07459 3.4055,-1.36241 8.84081,-3.18761 12.07846,-4.056 9.22638,-2.47465 14.09385,-3.38939 32.22333,-6.05569 6.02297,-0.8858 6.71497,0.17935 4.67514,7.19612 -4.63793,15.95389 -14.81702,29.01275 -28.157,36.12289 -16.26,8.66648 -36.84039,9.31701 -47.68689,1.50735 -8.30833,-5.98214 -12.27696,-19.01624 -11.33812,-37.23755 0.29755,-5.775 0.96585,-12.975 1.48511,-16 3.19593,-18.61818 12.37101,-40.06657 23.31374,-54.49999 2.08492,-2.75 5.04639,-6.72899 6.58104,-8.84221 14.75702,-20.32035 28.29284,-23.6861 48.29028,-12.00763 5.64936,3.2992 14.61493,7.34831 16.27235,7.34905 0.97479,4.3e-4 3.78729,-1.85652 6.25,-4.12657 5.08187,-4.6843 5.74851,-8.13979 2.7738,-14.37782 -2.5082,-5.25974 -19.23872,-14.85992 -29.29614,-16.81049 -1.375,-0.26667 -5.10946,-1.20474 -8.29879,-2.08459 -8.25985,-2.27868 -14.05112,-1.97337 -23.23876,1.22514 -14.05645,4.89351 -26.98558,16.75579 -40.87908,37.50594 -5.92839,8.85414 -15.91306,29.59367 -19.57946,40.66918 -2.96883,8.96832 -3.61068,11.56962 -6.16852,24.99999 -1.64922,8.65961 -2.14271,29.79546 -0.84052,36 4.08251,19.45209 10.62743,31.82652 20.06903,37.94447 6.66492,4.31871 15.54783,7.9965 19.4361,8.04711 1.65,0.0215 3.675,0.47526 4.5,1.00842 2.05109,1.32552 20.87188,1.25415 26.73565,-0.10137 z"
       id="path3684" />
  </g>
</svg>
